name Walk4.mot
datacolumns 19
datarows 15
range 3.40000000 3.41400000
endheader

                time	   L_ground_force_vx	   L_ground_force_vy	   L_ground_force_vz	   L_ground_force_px	   L_ground_force_py	   L_ground_force_pz	   R_ground_force_vx	   R_ground_force_vy	   R_ground_force_vz	   R_ground_force_px	   R_ground_force_py	   R_ground_force_pz	   L_ground_torque_x	   L_ground_torque_y	   L_ground_torque_z	   R_ground_torque_x	   R_ground_torque_y	   R_ground_torque_z	
          3.40000000	         -7.15548181	         98.59753193	         -6.85236885	          0.00496307	          0.00000000	         -0.00401586	         -0.00000000	          0.00000000	          0.00000000	          0.00000000	          0.00000000	          0.00000000	          0.00000000	          0.22478238	          0.00000000	          0.00000000	          0.00000000	          0.00000000	
          3.40100000	         -8.17015120	        108.13917849	         -7.63028989	         -0.00991189	          0.00000000	         -0.00529568	         -0.00000000	          0.00000000	          0.00000000	          0.00000000	          0.00000000	          0.00000000	          0.00000000	          0.24473039	          0.00000000	          0.00000000	          0.00000000	          0.00000000	
          3.40200000	         -9.25077188	        118.03335540	         -8.41340517	         -0.02473037	          0.00000000	         -0.00657770	         -0.00000000	          0.00000000	          0.00000000	          0.00000000	          0.00000000	          0.00000000	          0.00000000	          0.26580572	          0.00000000	          0.00000000	          0.00000000	          0.00000000	
          3.40300000	        -10.39890209	        128.27369048	         -9.19965900	         -0.03945212	          0.00000000	         -0.00785870	         -0.00000000	          0.00000000	          0.00000000	          0.00000000	          0.00000000	          0.00000000	          0.00000000	          0.28802034	          0.00000000	          0.00000000	          0.00000000	          0.00000000	
          3.40400000	        -11.61595514	        138.85196681	         -9.98686439	         -0.05403649	          0.00000000	         -0.00913533	         -0.00000000	          0.00000000	          0.00000000	          0.00000000	          0.00000000	          0.00000000	          0.00000000	          0.31138208	          0.00000000	          0.00000000	          0.00000000	          0.00000000	
          3.40500000	        -12.90318081	        149.75797618	        -10.77269687	         -0.06844259	          0.00000000	         -0.01040415	         -0.00000000	          0.00000000	          0.00000000	          0.00000000	          0.00000000	          0.00000000	          0.00000000	          0.33589422	          0.00000000	          0.00000000	          0.00000000	          0.00000000	
          3.40600000	        -14.26164261	        160.97941542	        -11.55470957	         -0.08263044	          0.00000000	         -0.01166167	         -0.00000000	          0.00000000	          0.00000000	          0.00000000	          0.00000000	          0.00000000	          0.00000000	          0.36155499	          0.00000000	          0.00000000	          0.00000000	          0.00000000	
          3.40700000	        -15.69219010	        172.50184183	        -12.33037160	         -0.09656285	          0.00000000	         -0.01290444	         -0.00000000	          0.00000000	         -0.00000000	          0.00000000	          0.00000000	          0.00000000	          0.00000000	          0.38835677	          0.00000000	          0.00000000	          0.00000000	          0.00000000	
          3.40800000	        -17.19542732	        184.30866391	        -13.09711087	         -0.11020657	          0.00000000	         -0.01412921	         -0.00000000	          0.00000000	         -0.00000000	          0.00000000	          0.00000000	          0.00000000	          0.00000000	          0.41628526	          0.00000000	          0.00000000	          0.00000000	          0.00000000	
          3.40900000	        -18.77167871	        196.38115651	        -13.85234925	         -0.12353234	          0.00000000	         -0.01533298	         -0.00000000	          0.00000000	         -0.00000000	          0.00000000	          0.00000000	         -0.00000000	          0.00000000	          0.44531865	          0.00000000	          0.00000000	          0.00000000	          0.00000000	
          3.41000000	        -20.42095202	        208.69852126	        -14.59353374	         -0.13651465	          0.00000000	         -0.01651302	         -0.00000000	          0.00000000	         -0.00000000	          0.00000000	          0.00000000	         -0.00000000	          0.00000000	          0.47542722	          0.00000000	          0.00000000	          0.00000000	          0.00000000	
          3.41100000	        -22.14289761	        221.23801421	        -15.31816684	         -0.14913148	          0.00000000	         -0.01766694	         -0.00000000	          0.00000000	         -0.00000000	         -0.00000000	          0.00000000	         -0.00000000	          0.00000000	          0.50657314	          0.00000000	          0.00000000	          0.00000000	          0.00000000	
          3.41200000	        -23.93676348	        233.97515532	        -16.02383604	         -0.16136408	          0.00000000	         -0.01879265	         -0.00000000	          0.00000000	         -0.00000000	         -0.00000000	          0.00000000	         -0.00000000	          0.00000000	          0.53871073	          0.00000000	          0.00000000	          0.00000000	          0.00000000	
          3.41300000	        -25.80134681	        246.88402847	        -16.70824087	         -0.17319677	          0.00000000	         -0.01988837	         -0.00000000	          0.00000000	         -0.00000000	         -0.00000000	          0.00000000	         -0.00000000	          0.00000000	          0.57178674	          0.00000000	          0.00000000	          0.00000000	          0.00000000	
          3.41400000	        -27.73494405	        259.93766751	        -17.36921498	         -0.18461671	          0.00000000	         -0.02095258	         -0.00000000	          0.00000000	         -0.00000000	         -0.00000000	          0.00000000	         -0.00000000	          0.00000000	          0.60574078	          0.00000000	          0.00000000	          0.00000000	          0.00000000	
